<?xml version="1.0" encoding="UTF-8"?>
<!DOCTYPE svg PUBLIC "-//W3C//DTD SVG 1.1//EN" "http://www.w3.org/Graphics/SVG/1.1/DTD/svg11.dtd">
<!-- Creator: CorelDRAW -->
<svg xmlns="http://www.w3.org/2000/svg" xml:space="preserve" width="3.87839in" height="0.704811in" version="1.1" style="shape-rendering:geometricPrecision; text-rendering:geometricPrecision; image-rendering:optimizeQuality; fill-rule:evenodd; clip-rule:evenodd"
viewBox="0 0 3878.39 704.81"
 xmlns:xlink="http://www.w3.org/1999/xlink"
 xmlns:xodm="http://www.corel.com/coreldraw/odm/2003">
 <defs>
  <style type="text/css">
   <![CDATA[
    .str0 {stroke:black;stroke-width:13.89;stroke-miterlimit:2.61313}
    .fil0 {fill:black}
    .fil1 {fill:white}
    .fil2 {fill:#E96E24;fill-rule:nonzero}
   ]]>
  </style>
 </defs>
 <g id="Layer_x0020_1">
  <metadata id="CorelCorpID_0Corel-Layer"/>
  <path class="fil0" d="M2800.1 45.15c11.65,-25.38 37.32,-43.07 67.01,-43.07l250.58 0c95.6,0 169.03,47.48 213.24,131.48 33.98,64.56 45.87,137.7 45.87,210.01 0,74.42 -12.17,149.01 -44.7,216.46 -42.6,88.32 -114.98,144.78 -215.46,144.78l-249.53 0c-29.69,0 -55.36,-17.69 -67.01,-43.07 -11.66,25.38 -37.33,43.07 -67.02,43.07l-227.15 0c-28.55,0 -53.38,-16.35 -65.61,-40.18 -12.23,23.82 -37.06,40.18 -65.61,40.18l-133.14 0c-21.57,0 -41.06,-8.85 -54.72,-24.16 -13.61,14.95 -33.19,24.16 -54.51,24.16l-219.41 0c-40.61,0 -73.69,-33.08 -73.69,-73.69l0 -35.96c0,-33.99 23.2,-62.78 54.68,-71.2l0.17 -5.2 -1.25 -336.15c-30.94,-8.79 -53.59,-37.34 -53.59,-70.9l0 -35.96c0,-40.4 32.72,-73.38 73.12,-73.69l258.31 -1.99c135.89,-2.83 234.37,64.72 234.37,208.63 0,70.19 -23.73,133.04 -76.45,178.07l51.69 109.41c3.02,6.38 12.8,25.03 18.59,31.11 18.17,6.24 32.59,18.91 41.09,35.07 9.33,-18.69 26.39,-32.92 46.97,-38.42l0.17 -5.19 -1.25 -336.15c-30.95,-8.79 -53.6,-37.33 -53.6,-70.9l0 -35.96c0,-40.61 33.08,-73.69 73.69,-73.69l227.15 0c29.69,0 55.36,17.69 67.02,43.07zm0 97.19c-9.06,19.72 -26.57,34.82 -47.9,40.56l-0.27 5.72 1.88 335.83c20.62,6.06 37.47,20.9 46.29,40.11 9.07,-19.76 26.63,-34.87 48.01,-40.59l0.17 -5.2 -1.26 -336.15c-20.9,-5.93 -38.01,-20.87 -46.92,-40.29zm-1515.65 -82.03c7.13,-33.22 36.75,-58.23 72.06,-58.23l250.58 0c95.6,0 169.03,47.48 213.24,131.48 33.98,64.56 45.87,137.7 45.87,210.01 0,74.42 -12.17,149.02 -44.7,216.46 -42.6,88.32 -114.98,144.78 -215.46,144.78l-249.53 0c-28.92,0 -54.02,-16.78 -66.08,-41.11 -12.05,24.33 -37.16,41.11 -66.07,41.11l-381.15 0c-29.01,0 -54.18,-16.89 -66.19,-41.34 -12.01,24.45 -37.18,41.34 -66.19,41.34l-219.41 0c-40.61,0 -73.69,-33.08 -73.69,-73.69l0 -15.14c-9.95,4.92 -21.15,7.59 -32.97,7.59l-49.81 0c-9.59,0 -18.78,-1.76 -27.22,-5.06l0 12.61c0,40.61 -33.08,73.69 -73.69,73.69l-160.33 0c-40.61,0 -73.69,-33.08 -73.69,-73.69l0 -35.96c0,-34.09 23.32,-62.9 54.86,-71.25 -0,-1.37 -0.01,-2.74 -0.01,-4.11l0 -332.73c0,-1.37 0,-2.74 0.01,-4.11 -31.54,-8.35 -54.86,-37.16 -54.86,-71.25l0 -35.96c0,-40.61 33.08,-73.69 73.69,-73.69l203.82 0c30.86,0 57.52,18.25 68.69,47.02l60.2 155.07 64.32 -156.43c11.54,-28.07 37.8,-45.67 68.15,-45.67l171.94 0c29.01,0 54.18,16.89 66.19,41.34 12.01,-24.45 37.18,-41.34 66.19,-41.34l369.19 0c35.31,0 64.93,25.01 72.06,58.23zm1.63 73.11l0 40.23c0,34.08 -23.31,62.86 -54.8,71.23 6.26,10.9 9.8,23.46 9.8,36.65l0 110.54c0,26.99 -14.61,50.65 -36.33,63.49l19.61 0c40.61,0 73.69,33.08 73.69,73.69l0 21.14c9.76,-12.7 23.55,-22.16 39.46,-26.41l0.17 -5.2 -1.26 -336.15c-24,-6.81 -43,-25.5 -50.33,-49.2zm-509.07 429.4c9.28,-18.91 26.44,-33.31 47.18,-38.85l0.17 -5.19 -1.25 -336.15c-20.27,-5.76 -36.98,-19.99 -46.1,-38.56 -9.31,18.97 -26.55,33.39 -47.37,38.91 0,1.37 0.01,2.74 0.01,4.11l0 332.73c0,1.37 -0,2.74 -0.01,4.11 20.81,5.51 38.06,19.93 47.37,38.91zm367.79 -97.07l-14.68 0c-14.95,0 -29.1,-4.54 -40.94,-12.46l0 66.85c0,0.63 0,1.26 0,1.89l19.63 0c2.34,-23.96 16.22,-44.6 35.98,-56.28zm2259.74 58.22l0.17 -5.2 -1.25 -336.15c-30.94,-8.79 -53.59,-37.34 -53.59,-70.9l0 -35.96c0,-40.61 33.08,-73.69 73.69,-73.69l369.19 0c40.61,0 73.69,33.08 73.69,73.69l0 97.89c0,34.08 -23.31,62.86 -54.8,71.23 6.26,10.9 9.8,23.46 9.8,36.65l0 110.54c0,26.99 -14.61,50.65 -36.33,63.49l19.61 0c40.61,0 73.69,33.08 73.69,73.69l0 101.88c0,40.61 -33.08,73.69 -73.69,73.69l-381.15 0c-40.61,0 -73.69,-33.08 -73.69,-73.69l0 -35.96c0,-33.99 23.2,-62.78 54.68,-71.2zm320.61 -58.22l-14.69 0c-14.95,0 -29.1,-4.54 -40.93,-12.46l0 66.85c0,0.63 0,1.26 0,1.89l19.63 0c2.34,-23.96 16.22,-44.6 35.98,-56.28zm-34.17 -255.28c-4.41,-7.62 -7.48,-16.06 -8.94,-24.97l-12.51 -0.01 0 34.81c6.53,-4.37 13.76,-7.71 21.45,-9.83zm-2580.35 0c-4.41,-7.62 -7.48,-16.06 -8.94,-24.97l-12.51 -0.01 0 34.81c6.53,-4.37 13.76,-7.71 21.45,-9.83z"/>
  <path class="fil1" d="M405.91 254.53l82.11 -199.68c8.66,-21.06 28.09,-34.08 50.87,-34.08l171.94 0c30.29,0 55,24.71 55,55l0 35.96c0,30.21 -24.58,54.87 -54.76,55 -0.19,7.38 -0.09,14.86 -0.09,20.36l0 332.73c0,5.56 -0.11,12.99 0.06,20.36 30.2,0.11 54.8,24.78 54.8,55l0 35.96c0,30.29 -24.71,55 -55,55l-219.41 0c-30.29,0 -55,-24.71 -55,-55l0 -35.96c0,-27.39 20.2,-50.22 46.47,-54.34l0.76 -21.96 0 -64.85 -48.02 116.78c-8.66,21.06 -28.1,34.08 -50.87,34.08l-49.81 0c-23.15,0 -42.89,-13.51 -51.27,-35.09l-40 -103.01 0.26 74.29c25.59,4.69 45.09,27.19 45.09,54.1l0 35.96c0,30.29 -24.71,55 -55,55l-160.33 0c-30.29,0 -55,-24.71 -55,-55l0 -35.96c0,-30.22 24.59,-54.89 54.79,-55 0.17,-7.37 0.06,-14.8 0.06,-20.36l0 -332.73c0,-5.56 0.11,-12.99 -0.06,-20.36 -30.2,-0.11 -54.79,-24.78 -54.79,-55l0 -35.96c0,-30.29 24.71,-55 55,-55l203.82 0c23.15,0 42.89,13.51 51.27,35.09l77.13 198.67zm1506.2 285.65l0.67 -21.14 -1.31 -352.33c-29.62,-0.78 -53.53,-25.18 -53.53,-54.98l0 -35.96c0,-30.15 24.43,-54.76 54.57,-55l258.43 -1.99c125.57,-2.62 215.41,56.74 215.41,189.95 0,73.39 -27.35,132.83 -80.98,172.68l58.01 122.78c4.07,8.62 17.52,34.49 26.5,39.88 23.86,6.82 39.83,27.94 39.83,52.87l0 34.18c0,30.29 -24.71,55 -55,55l-133.14 0c-21.83,0 -40.52,-11.87 -49.79,-31.64l-5.63 -12c-5.26,24.87 -27.42,43.63 -53.81,43.63l-219.41 0c-30.29,0 -55,-24.71 -55,-55l0 -35.96c0,-30.02 24.26,-54.55 54.17,-54.99zm1510.61 0l0.67 -21.14 -1.31 -352.33c-29.62,-0.78 -53.53,-25.18 -53.53,-54.98l0 -35.96c0,-30.29 24.71,-55 55,-55l369.19 0c30.29,0 55,24.71 55,55l0 97.89c0,30.29 -24.71,55 -55,55l-29.88 0c22.98,6.6 39.87,27.83 39.87,52.88l0 110.54c0,30.29 -24.71,55 -55,55l-37.27 0c-24.58,0 -45.48,-16.27 -52.49,-38.59l-0.47 -0.03 -6.66 0 0 111.7c0,5.33 -0.09,12.85 0.11,20.35 4.52,0.2 8.83,0.23 11.69,0.23l28.19 0 16.67 -0.46c0,-0.01 0,-0.02 0,-0.03l0 -10.99c0,-30.29 24.71,-55 55,-55l42.2 0c30.29,0 55,24.71 55,55l0 101.88c0,30.29 -24.71,55 -55,55l-381.15 0c-30.29,0 -55,-24.71 -55,-55l0 -35.96c0,-30.02 24.26,-54.55 54.17,-54.99zm316.92 -313.65c-22.98,-6.6 -39.87,-27.83 -39.87,-52.88l0 -6.82 -48.93 -0.05 0 98.37 7.12 0c7,-22.34 27.91,-38.62 52.5,-38.62l29.18 0zm-2897.26 313.65l0.67 -21.14 -1.31 -352.33c-29.62,-0.78 -53.54,-25.18 -53.54,-54.98l0 -35.96c0,-30.29 24.71,-55 55,-55l369.19 0c30.29,0 55,24.71 55,55l0 97.89c0,30.29 -24.71,55 -55,55l-29.88 0c22.98,6.6 39.87,27.83 39.87,52.88l0 110.54c0,30.29 -24.71,55 -55,55l-37.27 0c-24.58,0 -45.48,-16.27 -52.49,-38.59l-0.47 -0.03 -6.66 0 0 111.7c0,5.33 -0.09,12.85 0.11,20.35 4.52,0.2 8.83,0.23 11.69,0.23l28.19 0 16.67 -0.46c0,-0.01 0,-0.02 0,-0.03l0 -10.99c0,-30.29 24.71,-55 55,-55l42.2 0c30.29,0 55,24.71 55,55l0 101.88c0,30.29 -24.71,55 -55,55l-381.15 0c-30.29,0 -55,-24.71 -55,-55l0 -35.96c0,-30.02 24.26,-54.55 54.17,-54.99zm316.92 -313.65c-22.98,-6.6 -39.87,-27.83 -39.87,-52.88l0 -6.82 -48.93 -0.05 0 98.37 7.12 0c7,-22.34 27.91,-38.62 52.5,-38.62l29.17 0zm196.39 313.65l0.67 -21.14 -1.31 -352.33c-29.62,-0.78 -53.54,-25.18 -53.54,-54.98l0 -35.96c0,-30.29 24.71,-55 55,-55l250.58 0c88.57,0 155.68,43.57 196.7,121.5 32.53,61.81 43.72,132.09 43.72,201.31 0,71.58 -11.55,143.45 -42.85,208.35 -39.57,82.04 -105.61,134.21 -198.62,134.21l-249.53 0c-30.29,0 -55,-24.71 -55,-55l0 -35.96c0,-30.02 24.26,-54.55 54.18,-54.99zm1149.44 0l0.67 -21.14 -1.31 -352.33c-29.62,-0.78 -53.54,-25.18 -53.54,-54.98l0 -35.96c0,-30.29 24.71,-55 55,-55l227.15 0c30.29,0 55,24.71 55,55l0 35.96c0,29.9 -24.07,54.36 -53.83,54.99l-1.02 21.52 1.97 351.98c29.32,1.12 52.88,25.38 52.88,54.96l0 35.96c0,30.29 -24.71,55 -55,55l-227.15 0c-30.29,0 -55,-24.71 -55,-55l0 -35.96c0,-30.02 24.26,-54.55 54.18,-54.99zm361.17 0l0.67 -21.14 -1.31 -352.33c-29.62,-0.78 -53.54,-25.18 -53.54,-54.98l0 -35.96c0,-30.29 24.71,-55 55,-55l250.58 0c88.57,0 155.68,43.57 196.7,121.5 32.53,61.81 43.72,132.09 43.72,201.31 0,71.58 -11.55,143.45 -42.85,208.35 -39.57,82.04 -105.61,134.21 -198.62,134.21l-249.53 0c-30.29,0 -55,-24.71 -55,-55l0 -35.96c0,-30.02 24.26,-54.55 54.18,-54.99zm-726.06 -369.91l0 108.45c1.75,-1.24 3.35,-2.66 4.77,-4.28 11.92,-13.62 13.92,-41.16 13.92,-58.17 0,-25.8 -3.19,-40.03 -18.69,-46.01zm-556.44 15.17l0 334.82c0,2.03 -0.02,4.17 -0.04,6.39 2.98,-5.54 5.2,-11.34 6.41,-14.53 18.4,-48.44 20.76,-121.38 20.76,-172.65 0,-42.94 -3.03,-106.76 -22.65,-145.94 -1.45,-2.9 -2.93,-5.6 -4.48,-8.08zm1510.61 0l0 334.82c0,2.03 -0.02,4.17 -0.04,6.39 2.98,-5.54 5.2,-11.34 6.41,-14.53 18.39,-48.44 20.75,-121.38 20.75,-172.65 0,-42.94 -3.03,-106.76 -22.65,-145.94 -1.45,-2.9 -2.93,-5.6 -4.48,-8.08z"/>
  <path class="fil2 str0" d="M73.69 75.76l203.82 0 126.93 326.96 134.44 -326.96 171.94 0 0 35.96c-27.31,0 -43.95,6.33 -50.05,18.87 -3.17,6.21 -4.81,25.08 -4.81,56.49l0 332.73c0,31.41 1.52,50.28 4.45,56.49 6.21,12.54 22.97,18.87 50.4,18.87l0 35.96 -219.41 0 0 -35.96c29.77,0 45,-10.43 45.71,-31.19l1.52 -44.17 0 -344.16 -153.89 374.23 -49.81 0 -147.33 -379.45 1.41 393.54c0.59,20.76 15.71,31.19 45.01,31.19l0 35.96 -160.33 0 0 -35.96c27.43,0 44.18,-6.33 50.4,-18.87 2.93,-6.21 4.45,-25.08 4.45,-56.49l0 -332.73c0,-31.41 -1.52,-50.28 -4.45,-56.49 -6.21,-12.54 -22.97,-18.87 -50.4,-18.87l0 -35.96zm769.51 555.36l0 -35.96c34.69,0 52.51,-10.43 53.44,-31.19l1.4 -44.17 -1.4 -377.23c-0.7,-20.53 -18.52,-30.85 -53.44,-30.85l0 -35.96 369.19 0 0 97.89 -37.97 0 0 -9.1 0 -24.53c-0.47,-18.76 -17.35,-28.19 -50.52,-28.19l-108.41 -0.11 0 208.43 63.52 0 29.54 -0.67c14.41,-0.44 21.57,-8.65 21.57,-24.53l0 -13.43 37.27 0 0 110.54 -37.27 0 0 -13.2c0,-15.2 -7.15,-22.97 -21.57,-23.42l-29.54 -2 -63.52 0 0 166.7c0,34.3 2.11,54.49 6.21,60.6 6.91,9.99 27.07,14.98 60.59,14.98l28.94 0 44.07 -1.22c14.65,-0.44 23.44,-6.44 26.14,-18.2 0.47,-1.67 0.7,-13.76 0.7,-36.07l0 -10.99 42.2 0 0 101.88 -381.15 0zm1069.74 0l0 -35.96c34.69,0 52.51,-10.43 53.44,-31.19l1.41 -44.17 -1.41 -377.23c-0.7,-20.53 -18.52,-30.85 -53.44,-30.85l0 -35.96 258.79 -2c106.42,-2.22 159.63,42.84 159.63,134.96 0,72.81 -32.46,122.86 -97.4,150.27l79.7 168.69c18.99,40.4 39.38,63.48 61.06,69.26l0 34.18 -133.14 0 -118.73 -253.04 -37.62 0 0 141.83 1.75 44.06c0.47,12.1 2.46,19.76 5.86,22.75 3.75,3.66 16.88,6.44 39.5,8.44l0 35.96 -219.41 0zm172.29 -519.4l0 230.4 18.52 0c73.48,0 110.17,-41.95 110.17,-125.85 0,-69.59 -32.47,-104.43 -97.52,-104.43l-31.17 -0.11zm1338.32 519.4l0 -35.96c34.69,0 52.51,-10.43 53.44,-31.19l1.41 -44.17 -1.41 -377.23c-0.7,-20.53 -18.52,-30.85 -53.44,-30.85l0 -35.96 369.19 0 0 97.89 -37.97 0 0 -9.1 0 -24.53c-0.47,-18.76 -17.35,-28.19 -50.52,-28.19l-108.41 -0.11 0 208.43 63.52 0 29.54 -0.67c14.41,-0.44 21.56,-8.65 21.56,-24.53l0 -13.43 37.27 0 0 110.54 -37.27 0 0 -13.2c0,-15.2 -7.15,-22.97 -21.56,-23.42l-29.54 -2 -63.52 0 0 166.7c0,34.3 2.11,54.49 6.21,60.6 6.91,9.99 27.07,14.98 60.59,14.98l28.94 0 44.07 -1.22c14.65,-0.44 23.44,-6.44 26.14,-18.2 0.47,-1.67 0.7,-13.76 0.7,-36.07l0 -10.99 42.2 0 0 101.88 -381.15 0zm-2067.05 0l0 -35.96c34.69,0 52.51,-10.43 53.44,-31.19l1.41 -44.17 -1.41 -377.23c-0.7,-20.53 -18.52,-30.85 -53.44,-30.85l0 -35.96 250.58 0c66.46,0 115.68,30.74 148.03,92.11 24.96,47.5 37.39,105.99 37.39,175.69 0,71.14 -12.43,132.62 -37.39,184.45 -33.17,68.7 -82.87,103.1 -149.08,103.1l-249.53 0zm172.29 -519.4l0 408.53c0,29.3 0.7,46.17 2.11,50.72 4.34,16.43 16.88,24.75 37.74,24.75 64.81,0 97.28,-85.46 97.28,-256.26 0,-151.72 -37.98,-227.63 -113.81,-227.63l-23.32 -0.11zm977.14 519.4l0 -35.96c34.69,0 52.51,-10.43 53.45,-31.19l1.41 -44.17 -1.41 -377.23c-0.7,-20.53 -18.52,-30.85 -53.45,-30.85l0 -35.96 227.15 0 0 35.96c-34.46,0 -52.04,10.32 -52.74,30.85l-2.11 44.5 2.11 376.9c0.94,20.76 18.52,31.19 52.74,31.19l0 35.96 -227.15 0zm361.17 0l0 -35.96c34.69,0 52.51,-10.43 53.44,-31.19l1.41 -44.17 -1.41 -377.23c-0.7,-20.53 -18.52,-30.85 -53.44,-30.85l0 -35.96 250.58 0c66.46,0 115.68,30.74 148.03,92.11 24.96,47.5 37.39,105.99 37.39,175.69 0,71.14 -12.43,132.62 -37.39,184.45 -33.17,68.7 -82.86,103.1 -149.08,103.1l-249.53 0zm172.29 -519.4l0 408.53c0,29.3 0.7,46.17 2.11,50.72 4.33,16.43 16.87,24.75 37.74,24.75 64.81,0 97.28,-85.46 97.28,-256.26 0,-151.72 -37.98,-227.63 -113.81,-227.63l-23.32 -0.11z"/>
 </g>
</svg>
